<?xml version="1.0" encoding="utf-8"?>
<!-- Generator: Adobe Illustrator 26.3.1, SVG Export Plug-In . SVG Version: 6.00 Build 0)  -->
<svg version="1.1" id="Calque_1" xmlns="http://www.w3.org/2000/svg" xmlns:xlink="http://www.w3.org/1999/xlink" x="0px" y="0px"
	 viewBox="0 0 752 830" style="enable-background:new 0 0 752 830;" xml:space="preserve">
<style type="text/css">
	.st0{clip-path:url(#SVGID_00000037671213927789271420000013509525835709725887_);}
	.st1{fill:#B4DB5A;stroke:#5260F2;stroke-miterlimit:10;}
	.st2{fill:#FFFFFF;}
	.st3{fill:#5260F2;stroke:#5260F2;stroke-miterlimit:10;}
	.st4{fill:#5260F2;stroke:#5260F2;stroke-width:0.5;stroke-miterlimit:10;}
	.st5{fill:#5260F2;}
	.st6{display:none;fill:#EA4236;}
</style>
<g>
	<defs>
		<rect id="SVGID_1_" width="752" height="830"/>
	</defs>
	<clipPath id="SVGID_00000086667872656778018400000002157531924418679730_">
		<use xlink:href="#SVGID_1_"  style="overflow:visible;"/>
	</clipPath>
	<g style="clip-path:url(#SVGID_00000086667872656778018400000002157531924418679730_);">
		<path class="st1" d="M624.9,349.7c5.5,0,10-4.5,10-10c0-5.5-4.5-10-10-10c-5.5,0-10,4.5-10,10
			C614.9,345.2,619.4,349.7,624.9,349.7z"/>
		<path class="st2" d="M715.3,355.9H548.5v27.7h166.8V355.9z"/>
		<path class="st1" d="M538.5,570.1c5.5,0,10-4.5,10-10c0-5.5-4.5-10-10-10s-10,4.5-10,10C528.5,565.6,533,570.1,538.5,570.1z"/>
		<path class="st1" d="M274.5,567.1c5.5,0,10-4.5,10-10c0-5.5-4.5-10-10-10s-10,4.5-10,10C264.5,562.6,269,567.1,274.5,567.1z"/>
		<path class="st1" d="M244.5,356c5.5,0,10-4.5,10-10s-4.5-10-10-10s-10,4.5-10,10S239,356,244.5,356z"/>
		<path class="st1" d="M214.5,185.6c5.5,0,10-4.5,10-10c0-5.5-4.5-10-10-10s-10,4.5-10,10C204.5,181.1,209,185.6,214.5,185.6z"/>
		<path class="st3" d="M751.4,187.5c-28.8,0.3-57.1-9.3-81.9-23.5c-10.4,1.5-22.5,4.7-33,2.8c-2.6-0.5-4.9-1.8-5.8-4.5
			c-0.2-0.5-0.6-1-1.2-1.3c-1.6-0.6-3.3,0.1-4.9,0.5c-3,0.9-6,2.3-9,3.2c-6.1,2-12.4,2-18.8,1.9c-6.8-0.2-13,1.7-17.1,7.4
			c-6.6,8.5-8.7,19.4-13,29c-2.1,4.4-4.3,9.9-9.1,11.9c-3,0.9-5.9-0.4-8.7-1.6c-7.6-3.6-16.5-6.6-25-4.1c-4.2,1.2-7.9,3.7-11.3,6.2
			c-3.1,2.2-6.7,5.5-10.6,3.1c-3-1.8-5-5.2-7.4-7.9c-3.3-3.7-7.5-6.7-12.5-7.5c-4.2-0.8-8.6-0.4-12.8-0.5
			c-16.4-0.3-20.8-6.8-27.2-20.8c-1.8-3.3-3.6-7.1-6.8-9.4c-6.7-3.1-8.1,13.6-9,18c-1.2,6.2-2.9,12.3-4.9,18.3
			c-1.1,2.9-1.9,5.9-3.9,8.2c-3.5,4-7.7,7.1-11.4,11c-6.8,6.6-7.5,12.6,2.3,15.6c2.2,0.7,3.7,1.2,5.9,2.1
			c7.3,2.9,14.5,7.1,20.2,12.6c-6.5,7.3-6.3,18,3,22.9c6.9,3.4,13.1-0.8,13.9-8.2c1.1-10,6.5-15.4,16.3-10.6c3.5,1.1,7,2.3,10.3,4
			c15.2,7.6,18.1,21.6,12.6,36.8c-1.2,3.5-2.7,6.8-4.4,10.1c-0.8,1.6-1.7,3.2-2.7,4.9c-0.8,1.1-1.6,3.3-0.7,4.8c0.2,0.4,0.8,1,1,1.3
			c3,2.5,6.5,3.6,9.5,6c11.9,8.6,1.7,24.3-4.3,33.5c-4.3,5.9-9.4,11.4-15.6,15.4c-7.6,4.8-17.9,8.5-23.3,7s-4.4-1.6-6-2.3
			c-1.6-0.7-5.6-3.3-8.1-4.9c-3.9-2.5-8-5.4-9.9-9.8c-1-2.1-1.6-4.5-2.7-6.6c-0.5-1.1-1.3-2.1-2.4-2.6c-1.1-0.6-2.3-0.6-3.5-0.7
			c-2.4,0.1-4.7-0.3-7-0.9c-2.9-0.7-5.5-2.4-8.5-2.8c-3,0-5.8,1.2-8.7,1.8c-3.5,0.7-7.1,0.2-10.6-0.2c-2.3-0.4-4.6-1.1-6.5-2.5
			c-1.5-1-2.4-2.6-3.6-3.9c-2.4-1.9-5.7-1.9-8.5-2.6c-4.7-1-8.7-3.6-13-5.7c-2.1-1.1-4.3-2-6.4-3.1c-2.1-1.1-4.1-2.3-6.1-3.6
			c-5.9-4-12.5-6.8-18.7-10.3c-2-1.2-4.1-2.4-5.8-4c-1.7-1.6-2.9-3.7-4-5.7c-2.2-4.2-5.6-8.3-10.5-9.4c-2.4-0.7-4.9,0-7.1,0.8
			c-4.4,1.5-9.4,1.3-13.6-0.6c-4.5-1.9-7.5-5.6-11.9-7.8c-1.8-0.9-4-0.5-5.4,0.9c-0.4,0.4-0.8,0.8-1.3,1.1
			c-5.4,3.1-17.4-8.2-18.7-13.3c-0.5-6.1-7-8.9-9.9-13.6c-2.7-4.9,1.8-15,3.8-19.8c1.2-2.2,1.7-5.1,0.4-7.4
			c-4.5-6.7-13.7-4.2-20.5-5.4c-2.3-0.3-4.6-0.7-6.9-1.3c-3.5-0.8-7-2.2-10.7-2c-2.5,0-4.6,1.6-6.9,2.2c-2.9,0.9-5.1,0.5-6.1-2.6
			c-2.4-5.2-7.5-8.4-12.6-10.3c-3.3-1.1-6.7-1.9-9.1-4.4c-2.4-2.4-3.4-5.7-3.9-9.1c-0.2-2.5-1.2-5.1-2.8-7
			c-3.7-4.7-9.6-6.6-15.2-7.9c-3.4-1.4-4.9-5-6.2-8.3c-1-2.7-1.9-5.7-3.2-8.4c-0.5-1.2-1.8-3-1.5-4.2c0.1-0.2,0.2-0.4,0.7-0.5
			c2.2-0.6,4.7-0.4,6.9-1c4.6-1.1,7.6-0.4,8.9-6.1c0.4-2-0.5-4.1-1.4-5.7c-0.8-1.5-1.6-2.6-1-4.1c1.4-2.8,4-4.8,6.3-6.8
			c2.4-1.8,1.4-5-0.1-6.9c-1.5-2.1-3.6-3.5-5.9-4.7c-0.7-0.4-2.3-0.9-2.7-1.6c-2.3-2.7,3.4-8.5,5.2-10.8c1.5-2,3.3-3.7,4.1-6.2
			c1.7-6.3-2.8-12-5.4-17.2c-1.5-3.3-1.8-6.7-2.8-10.2c-0.3-0.9-0.7-2-1.4-2.8c-2.2-1.9-5.1-2.3-7.6-3.5c-1.9-0.9-4.3-2.3-3.1-4.6
			c3.3-6,1.7-8.5-3.6-12.2c-0.4-0.4-0.7-0.6-1-1c-0.1-0.2-0.3-0.4-0.4-0.7l-0.3-0.7c-2-6.6-1.6-13.9-1.5-20.8
			c0.1-4.7,0.5-9.4,0.9-14.2c0.1-3.7,0.7-7.3-0.2-11c-1.1-3.6-4.8-1.6-7.3-1.9c-3.4-0.3-6.9-1-10.1-2.2c-3.1-1.2-6.1-3-7.4-6.1
			c-1.4-3.4-3.5-6.6-6.3-9C89.3,1.3,81.9-1.3,76.3,2c-2.1,1.2-3.7,3-5.8,3.8c-3.2,1.3-6.6-0.2-9.6-1.4c-12-4.8-18.8,0.3-23.7,11.2
			L37,16.2c-8.9-5.8-20.3-0.2-28.3,4.7c-5.3,3.1-9.4,8.3-8.4,15C1,42.8,6.5,49.2,4.6,56.1c-0.2,0.5-0.4,1.1-0.6,1.6l-0.3,0.9
			l-0.3,0.9l-0.2,0.9l-0.2,1c-0.3,2-0.5,4.1,1.1,5.8c1.6,1.6,4.5,1.4,6-0.2c6.1-6.5,14.3-10.3,22.8-12.5c4.5-1.2,9.2-2.3,13.8-2.4
			c9.1-0.5,11.5,4.6,14.9,11.6c1.1,2.1,2.3,4.2,3.7,6.2c1.3,1.9,3.2,3.5,4.4,5.5c2,2.9,1.9,6.5,0.6,9.6c-0.8,2.2-2,5.1-0.6,7.4
			c2.7,4.2,8.3,4.8,11.5,8.4c4.2,4-1.8,7.8-4.9,10.1c-8.1,5-4.6,9.3-2.1,15.9c1.4,3.6-1.8,6.3-2.8,9.6c-1.5,4.1,2.5,5.5,5.5,6.3
			c0.3,0.1,0.5,0.2,0.8,0.3l0.7,0.4l0.4,0.2c0.1,0.1,0.2,0.2,0.3,0.3c4.8,4,1.4,13.4,2.2,19.3c0.1,5.2-1.3,15,6.3,15
			c2.9,0,5.8-1,8.7-0.5c1.6,0.7,1.1,2.7,1.2,4.3l-0.1,1.8c0,0.6,0.1,1.2,0.2,1.9c0.9,4.8,3.3,9,5.5,13.2c1.1,2.1,2.2,4.2,3,6.4
			c0.5,1.2,0.2,2-0.4,3.1c-2.6,5.2-6.6,10.5-6.1,16.7c0.2,2.6,2.5,4.2,4.2,5.8c4.9,4.6,4.6,9.1-2.2,11.3c-4,1.2-7.7,3.5-10.6,6.5
			c-1.2,1.3-5.8,6.3-3.6,7.8c2.9,5.8,4,12.4,5.2,18.6c1.5,9.2,3.1,19.1-1.3,27.7c-3.5,7.4-9.6,13.9-11.8,22
			c-1.7,8.6,9.7,10.5,10.2,17.8c0,1.1-0.2,2.3-0.6,3.3c-0.8,2.2-1.5,4.6-1.8,7c-1.1,7.2,2,15.1,8.5,18.7c1.7,1.1,3.8,1.7,5.4,2.8
			c0,0,0,0-0.1,0.1c-1.8,1.2-4.3,2.1-6.2,3.2c-4.2,2.2-8.7,4.3-12,7.8c-4.3,4.5-2.5,9.6,2.6,12.5c2.1,1.2,4.5,2,6.7,2.6
			c2.2,0.6,3.8,2.3,4.8,4.3c2.6,6.5,1.1,13.9,0,20.7c-1,3.8,1.7,4.8,4.7,4.8c2.5-0.1,4.9-0.7,7.1-1.6c2.3-1,4.6-1.9,6.3-4
			c2.9-4.5,8.3-1,12.4-0.5c1,0.2,2.1,0.3,2.8,1.2c3.4,4.4,3.4,11.1,2.3,16.4c-0.7,3.2-2.2,5.9-4.6,8c-0.6,0.7-1.3,1.5-1.6,2.4
			c-3.3,7.8,15.5,7.4,19.9,8.9c5.8,1.2,5.2,10,7.2,14.4c0.5,1.3,1.3,2.6,2.7,3.1c2.6,0.6,4.9,0.5,7.5,0.3c4.9-0.5,9.6-3,12.9-6.6
			c2.1-2.1,3.5-4.8,5.7-6.4c0.4-0.2,0.7-0.2,1-0.1c0.7,0.3,1.5,1.2,2.2,2.1c1.3,1.9,2.7,4,4.7,5.6c5.8,4.9,9.9-1.5,10.6-6.8
			c0.9-3.4-1.6-7-0.3-10.3c0.8-2.2,2.8-2.4,5-1.8c3.5,0.8,7.2,1.4,10.8,1.2c0.9-0.1,2.7-0.1,3.6-0.3c3.7-0.4,7.3-2.1,10-4.6
			c2.7-2.2,4.7-5.2,8.2-5.6c6,0.2,10.3,5.5,16.3,6.2c1.6,0.2,3.1-0.1,4.7-0.5c3.2-0.7,4.5,3.4,6,5.6c2.4,3.9,4.6,1.8,6.6-0.7
			c0.4-0.4,0.7-0.9,1.1-1.3l1.3-1.1c4.5-3.6,10.2-5.6,15.8-7.1c4.6-1.2,9.2-2,13.9-2.8c2.4-0.3,5.1-1.7,6.2-4
			c3.1-6.4,3.9-14,12-15.9c3.8-1,8.2,0,10.5,3.4c1.4,2.6,2.3,5.4,4.1,7.9c1.3,2.1,3.8,3.2,6.1,4c4.5,1.6,8.7,3.9,13.3,5.1
			c6.3,1.7,12.7,3.8,19.3,3.9c3.8,0,3.9-4.2,5.4-6.7c0.9-1.5,2.2-2.7,3.7-3.5c4.7-2.6,10.2-2.7,15.3-4.3c2.3-0.7,4.4-2.1,5.9-4.1
			c0.7-1,1.3-2,2-2.9c5-6.7,12.1-11.3,19.1-15.6c2-1.2,4.1-2.3,6.4-3c2.2-0.8,4.6-1.2,6.9-1.6s4.9-0.8,6.6-2.6
			c0.6-0.6,1.1-1.5,1.5-2.2c0.8-1.2,2-2.1,3.3-2.7c0.5-0.3,1.1-0.5,1.6-0.9s0.7-1.2,0.6-1.7c-0.3-4.3-2.6-7.3-5.7-9.7
			c11.8,7.1,7.7,37.1,6.4,48.9c-0.7,8.1-4.7,22.4-0.6,29.5c3.4,4.9,11.5,0.4,15.7-1.5c1-0.4,2-0.7,2.9-0.4c0.9,0.2,1.7,1,2.3,1.8
			c0.6,0.8,1.1,1.8,1.8,2.8c2,2.8,5.2,4.4,8.4,5.3c7.3,2.3,15.3,1.5,22.6,3.8c2.9,1.6,3.1,5.5,3.6,8.4c0.8,7.2,2.7,13.8,11.1,14.3
			c2.2,0.1,4.4,0.2,6.5,0.6c10.6,1.8,21,8.1,28.9,14.3c4.4,12.2,12,25.2,25.4,28.6c4.4,1.1,9.1,1.1,13.5-0.4c0.1-4.1,0.4-8.2,1-12.2
			c1.1-7.9,3.5-15.8,8.8-21.8c2.6-3,5.7-6,6.9-10c1.3-3.9,0.8-8.2,0.6-12.1c-0.7-12.4,8.1-22.7,19.6-26.3l0.8-0.2l-0.3-0.7
			c-7.4-17.4-11-38.3-3.5-56.2c2.6-6,6.8-11.1,9.2-17.1c5.5-12,7.1-25.3,8.2-38.2c0.6-4.7,0.8-9.7,3.3-13.7
			c4.9-6.4,11.2-11.5,16.8-17.4c4.6-4.7,8.9-9.6,12.7-14.9c4.8-6.5,8-14.1,14.4-19.4c11.2-9.6,21.7-12.1,26.1-28.2
			c0.5-2.4,1.6-7.2,2-9.6c2-7.8,5.2-15.4,8.8-22.5c5.9-11.9,13-23.3,20.8-34.1L751.4,187.5z M37.2,16.4
			C37.1,16.5,37.2,16.5,37.2,16.4L37.2,16.4z M452.4,392.6c2.5,7.3-1.9,4.2-4.7,8.6l-0.5,0.8l-0.5,0.7c-1.6,2.2-4.4,2.8-7,3.2
			c-2.3,0.4-4.7,0.8-7,1.6c-2.3,0.7-4.4,1.8-6.5,3c-6.1,3.6-12.2,7.6-17,12.9c-1.6,1.7-3,3.7-4.3,5.7c-2.9,4-8,4.5-12.6,5.4
			c-3.5,0.8-7.2,1.5-10.1,3.7c-2,1.5-3.1,3.8-3.9,6c-0.4,1.1-0.9,2.2-1.8,2.6c-0.9,0.5-2.1,0.4-3.3,0.3c-8.1-1-16.2-3.4-23.9-6.3
			c-3.1-1.6-6.7-2.6-9.8-4.2c-3-1.8-4.1-5.4-5.6-8.5c-3.1-7.7-13.8-7.5-18.9-2c-3.4,3.4-4.3,8.7-6.4,12.8c-0.5,1-1.2,1.8-2.1,2.3
			s-2,0.8-3.2,1c-4.6,0.8-9.4,1.5-14,2.8c-6.3,1.6-12.9,4-17.8,8.5c-1.2,1.1-2.1,2.8-3.5,3.6c-0.3,0.1-0.5,0.1-0.9-0.2
			c-1.2-1.2-1.7-2.8-2.7-4.3c-0.9-1.5-2.7-3.5-4.8-3.4c-0.6,0-1.4,0.2-2,0.4c-1,0.3-2.1,0.4-3.2,0.2c-6.8-0.8-13.2-9.4-20.4-5
			c-2.2,1.4-3.7,3.2-5.5,4.7c-2.6,2.3-5.7,3.7-9.1,4.2c-3.4,0.4-7,0.4-10.4-0.2c-2.5-0.3-4.9-1.5-7.5-0.8c-4.2,1.5-3.9,7-2.8,10.4
			c0.8,4.3-2.2,13.6-7.7,8.9c-1.8-1.5-3-3.3-4.4-5.3c-0.8-1-1.5-2.1-3-2.7c-5.4-1.6-7.2,11.8-20.5,13.1c-2.1,0.3-4.6,0.1-6.7-0.2
			c-0.7-0.2-1.3-1.2-1.7-2.2c-0.4-1-0.7-2.2-1-3.3c-1.1-4.4-1.9-11.1-7.4-12.1c-4.7-1.1-9.4-1.3-14-2.4c-3.2-0.8-6.9-2.1-4-5.6
			l0.5-0.6l0.6-0.6c2.3-2.1,3.7-5.1,4.3-8.1c1.2-5.8,1.1-12.9-2.7-17.8c-0.7-0.7-1.7-1.4-2.7-1.5l-0.9-0.2c-2.3-0.4-4.5-1.2-7-1.6
			c-1.2-0.2-2.6-0.2-3.9,0.2c-1.3,0.5-2.3,1.5-3,2.5c-0.6,0.8-1.5,1.5-2.5,2c-3,1.7-6.4,2.8-9.8,3c-1.1,0-2.3-0.1-3-0.6
			c-0.6-0.4-0.7-1.1-0.6-1.8c0.9-5,1.7-10,1.5-15.1c-0.2-4.7-1.8-10.7-7-12c-12.6-3-15.2-10.8-3.4-17.6c3.1-1.8,6.2-3.5,9.4-5
			l1.6-0.8c0.7-0.5,1.7-0.6,2-1.6c0-0.8-0.7-1-1.2-1.3c-3.7-1.7-7.5-3.5-9.9-7c-4.2-5.8-3.9-13.6-1.3-20.1c2.3-5.5-1.5-9.1-5.4-12.4
			c-4.2-3.4-5.5-7.3-3.1-12.1c3-6.5,7.4-12.1,10.6-18.5c4.5-8.7,2.9-18.8,1.3-28.1c-1.3-6.4-2.3-13-5.3-18.9
			c-0.1-0.1-0.2-0.3-0.4-0.4c0,0-0.1-0.1-0.1-0.2c0-0.2,0-0.5,0.1-0.7c1.8-4.3,5.6-7.6,9.5-10c1.7-1,3.8-1.7,5.7-2.3
			c2.5-1,5.4-2.9,5.2-6c-0.3-3.8-3.7-6.3-6.2-8.7c-2.4-2.7-1.4-6.6-0.2-9.7c1.4-4,4.1-7.3,5.5-11.2c0-3-2.1-5.8-3.3-8.5
			c-2.5-5.2-6-10.5-5.4-16.5c0.1-2.8,0-5.6-3.7-5.4c-4.2-0.1-10.4,2.7-11.9-3c-0.9-3.4-0.5-7-0.6-10.5c-0.4-4.7,0.9-9.4,0.4-14.3
			c-0.3-2.2-1.1-4.4-2.9-5.8c-0.1-0.1-0.2-0.2-0.4-0.3l-0.4-0.2l-0.8-0.5c-1.8-0.8-4.1-0.9-5.4-2.4c-1.9-2.5,2.1-6.6,2.7-9.3
			c1.2-4.9-4-8.9-2.9-13.7c0.2-0.8,0.6-1.5,1.1-2.1c1.7-1.9,4.2-3.1,6.2-4.8c3.3-2.5,5.8-6.1,2.2-9.7c-1.7-1.8-3.8-3-6-4.1
			c-2-1.1-4.1-2.1-5.3-4.1c-0.5-0.9-0.6-1.9-0.4-3c1.5-4.9,3.8-8.9,0.4-14.1c-1.2-2.1-3-3.6-4.4-5.6c-2.9-3.8-4.4-8.3-6.9-12.4
			c-5.6-9.4-18.4-5.8-27-3.7c-8.7,2.3-17.2,6.2-23.5,12.8c-1,1-2.7,1.1-3.7,0.2c-0.6-0.6-0.8-1.6-0.8-2.7c0.1-1.4,0.4-2.8,0.8-4.1
			c0.3-0.8,0.7-1.6,0.9-2.5c2.3-7.3-3.3-14-4.1-21c-1-6.1,3.1-10.6,8-13.6c7.3-4.4,17.4-9.6,25.7-5.1c0.2,0.2,0.5,0.3,0.7,0.5
			l0.3,0.3c0.1,0.1,0.3,0.3,1,0.4c0.9-0.2,1-0.7,1.1-0.8c0.1-0.2,0.2-0.4,0.2-0.5l0.3-0.8c1.7-4,4.5-8.3,8.3-10.5
			c4.6-2.5,10-0.8,14.6,1.1C64,7.4,65.7,7.8,67.7,8c2.6,0.1,5.2-1,7.2-2.6c1.8-1.4,3.6-2.7,5.8-3.1c6.8-0.8,13.2,3.8,16.5,9.6
			c1.2,2.1,1.9,4.6,3.7,6.3c4.5,4.5,11,5.6,17.1,6.3c1.7,0.2,3.6-0.5,5-0.3c0.2,0,0.3,0.3,0.5,0.7c0.3,0.9,0.4,2.1,0.4,3.2
			c0,2.3-0.1,4.7-0.3,7c-0.4,4.7-0.7,9.5-0.9,14.2c-0.1,7.2-0.5,14.5,1.7,21.6c0.4,1.2,1.2,2.6,2.3,3.4c1.6,1.3,3.9,2.5,4.5,4.5
			c0.2,0.9,0,1.9-0.3,2.9c-0.4,1.1-1.2,2.2-1.5,3.4c-0.4,1.4,0.2,3.3,1.2,4.2c2.9,2.8,7.1,3.1,10.2,5.2c2.1,3.6,1.9,8.5,3.8,12.3
			c2.3,5,6.7,10,5.3,15.8c-1.7,5.4-15.9,15.3-7.1,20.3c2.5,1.1,5.1,2.6,6.8,4.8c0.8,1.2,1.7,2.8,0.7,3.9c-2.1,2-4.4,3.7-6.1,6.1
			c-4.2,5.3,2.6,7.9,1.1,12.7c-0.2,0.7-0.7,1.5-1.1,2c-1.1,1.1-2.7,1-4.4,1.4c-2.3,0.6-4.5,0.8-7,1c-1.4,0.1-3.3,0.5-3.9,2.1
			c-0.6,2.2,0.8,4,1.6,5.8c3,6.1,3.8,15.9,11.5,18c4.9,1.1,10.1,2.9,13.4,6.9c1.4,1.8,2.2,3.8,2.4,6c0.4,3.6,1.7,7.5,4.4,10.1
			c2.6,2.7,6.4,3.8,9.9,4.8c5.5,1.9,10.4,5.5,12.5,11c1.4,2.6,4.9,2.7,7.3,1.9c2.2-0.6,4.2-2.1,6.5-2.2c3.5-0.1,6.8,1.2,10.2,1.9
			c2.3,0.6,4.7,1,7.1,1.3c6.1,1.1,15.4-1.4,19.4,4.5c1.1,1.9,0.7,4.2-0.4,6.2c-1,2.2-1.8,4.4-2.6,6.7c-0.7,2.3-1.4,4.6-1.8,7
			c-0.3,2.4-0.6,5.2,0.8,7.4c2.9,4.8,9.2,7.2,9.9,13.1c1.3,5.7,14.4,17.8,20.4,14c0.5-0.3,1-0.8,1.4-1.2c1.2-1.2,2.8-1.5,4.4-0.8
			c4.1,2.1,7.5,5.9,11.9,7.7c4.4,1.9,9.6,2.2,14.2,0.5c2.2-0.8,4.4-1.5,6.8-0.9c8.3,2,9.1,9.4,14.3,14.8c0.9,0.8,1.8,1.6,2.8,2.2
			c7,4.5,14.9,7.4,21.8,12.1c4,2.6,8.3,4.7,12.6,6.7c4.3,2,8.4,4.7,13.1,5.7c2.8,0.8,6,0.7,8.4,2.5c1.2,1.3,2.1,2.9,3.6,3.9
			c4,2.8,9.1,2.9,13.8,3.1c3.6,0,7-1.4,10.5-2c3.6-0.7,6.8,1.9,10.1,2.6c2.3,0.7,4.7,1,7.1,0.9c6.1-0.4,6.3,5.6,8.4,9.8
			c2,4.4,6,7.4,10,9.9c2.3,1.6,4.8,2.9,7.3,4.4l2.6,1.7C448.8,387.2,451.1,389.5,452.4,392.6z M722.9,239l-1.4,4.7l-1,4.8
			c-0.6,2.4-0.8,4.4-1.8,7c-3.3,11-12.4,15.8-21.1,22c-4,3-7.6,6.4-10.5,10.5c-2.7,4.1-5.1,8.3-8,12.2c-3.8,5.2-8,10.1-12.6,14.7
			c-4.5,4.7-9.4,9-13.9,13.8c-1.1,1.2-2.2,2.4-3.2,3.8c-2.8,4.3-3,9.6-3.6,14.5c-0.6,6.5-1.1,12.9-2.4,19.3
			c-1.8,9.5-5.1,18.7-10.2,26.9c-5.5,8.2-8.6,18-8.9,27.9c-0.4,12.9,2.5,25.7,7.6,37.5c-7.5,2.7-14.2,8-17.5,15.4
			c-1.7,3.8-2.3,8-2.2,12c0.3,4,0.8,7.9-0.4,11.8c-1.2,3.9-4.1,6.7-6.7,9.7c-2.6,3.1-4.7,6.7-6.1,10.5c-2.7,7.6-3.4,15.6-3.7,23.6
			c-8.2,2.6-17.5-0.1-23.8-5.9c-6.5-5.8-10.7-13.9-13.7-22c-10.2-8.2-22.6-15.1-35.9-15.4c-11.9-1-8.8-12.4-12.1-20.2
			c-0.9-2.2-3.4-3.2-5.6-3.4c-2.2-0.4-4.4-0.6-6.5-0.9c-4.4-0.5-8.7-0.9-12.9-2.1c-3-0.9-6.1-2.4-7.9-5c-1.2-1.8-2.2-4.2-4.6-4.9
			c-1.2-0.3-2.5,0-3.5,0.4c-2.1,0.9-4,1.9-6,2.6c-1.9,0.6-4.2,1.2-6.2,0.8c-4.2-1.3-3.9-7.2-3.9-10.9c0.2-6.6,1.6-13,2.4-19.5
			c1.1-8.7,2-17.5,1.8-26.3c-0.3-6.6-0.8-13.6-4.2-19.4c-0.6-1.1-1.5-2.1-2.4-3c4.2,0.5,8.4,0,12.5-1c11.6-3,20.9-11.3,27.7-20.8
			c3.1-4.6,6.3-9.6,8.3-14.8c2.1-5.3,3.2-11.8-0.1-16.9c-2.1-3.3-5.6-5.4-8.9-7.2c-1.6-0.9-3.3-1.8-4.5-2.8
			c-0.6-0.6-0.9-1.1-0.9-1.8c0.5-2.1,2.6-4.9,3.6-7.1c1.7-3.3,3.3-6.8,4.5-10.3c3.9-10.6,4.2-23.9-4.3-32.4
			c-5-5.5-13.4-9.1-19.6-10.8c-11.1-5.4-18,0.8-19.2,12.1c-0.7,5.9-5.1,9.4-10.9,6.6c-4.2-2-6.9-6.8-6.3-11.5c0.5-3.7,2.7-7,5.3-9.7
			c-3.2-3.5-7-6.3-10.9-8.7c-4.6-2.9-9.5-5.1-14.5-6.9c-2.6-0.9-6.3-1.8-8.1-3.7c-5.2-5.8,14.9-17.2,17-23.4
			c2.7-5.9,4.3-12.1,5.9-18.3c1.7-6.1,2-12.6,3.9-18.6c0.5-1.5,1.4-3.9,2.7-4.5c0.4-0.2,1.1,0.2,1.7,1c5,5.6,6.8,12.9,11.1,19.1
			c5,7.9,14,10.4,22.9,10.4c4.2,0.1,8.4-0.4,12.5,0.4c4.6,0.7,8.5,3.6,11.6,6.9c2.5,2.8,4.4,6.1,7.8,8.2c4.3,2.7,8.9-0.7,12.3-3.3
			c3.3-2.5,6.8-4.9,10.8-6c4-1.2,8.2-1.1,12.2-0.2c4.1,0.8,7.9,2.5,11.8,4.2c2.9,1.2,6.4,2.6,9.7,1.6c13-5.7,13.3-36.7,26.9-45.8
			c7.3-4.7,16.5-1.8,24.7-3.4c6.4-0.7,11.9-4.5,18.2-5.5c0.5,0,1,0,1.4,0.2c0.9,0.5,1.1,1.6,1.6,2.5c1.4,2.5,4.5,3.1,7.1,3.5
			c10.1,1.2,21.5-1.8,31.5-3.4c18.5,11,39.1,19,60.4,22.6c6.8,1.2,13.7,1.8,20.6,1.7C739.3,204.2,729.2,220.8,722.9,239z"/>
		<path class="st3" d="M603.6,744.3c-5.4-6.2-12.6-19.1-9.7-27.3c3-5.5,5.1-12,3.8-18.4c-0.5-3.1-1.8-6-2.8-9
			c-1.3-4.9-0.7-10,0.1-15c0.7-4,1.6-8.1,2.4-12.1c1.3-6.1,2.6-12.2,3.5-18.3c0.7-6.2,2-12.1,4.3-17.9c2.7-7.7,8.2-15.5,6.2-24
			c-1-4.2-4.4-7.1-7.1-10.3c-10.2-13.5-9.2-31.5-8.3-47.5h-0.2c-0.7,8.2-1.2,16.5-0.4,24.8c0.8,8.2,3,16.7,8.1,23.4l2.1,2.4
			c10.3,9.7,2.4,20.2-1.7,30.7c-2.4,5.7-3.9,12-4.6,18.2c-0.9,6.1-2.2,12.2-3.5,18.2c-1.7,8.2-4,16.3-3.2,24.8
			c0.2,2.1,0.9,4.2,1.7,6.2c3.4,8,2.1,15.7-2,23.2c-2.3,6.2,0.5,13,3.1,18.6c1.9,3.8,4.2,7.3,7,10.5c2.6,3.1,6.6,5,8,8.9
			c2.3,5.5-0.9,12.3-6.5,14.3c-2,0.8-4.3,1-5.8,2.8c-6.1,6.6-0.9,25-6.8,29.6c-6.4,5.1-14.5,8.2-20,14.6c-1.4,1.5-2.6,3.3-3.7,5
			c-4.1,5.8-10.1,5.8-16.5,4.9c-2-0.2-4.1-0.5-6.2-0.6c-6.4-0.2-12,3.2-18.1,4c-5.1,0.8-10.3-0.1-15.1-1.7
			c-11.5-3.8-8.9-14.4-3.1-22.2l0.8-1l-1.2,0.3c-5.3,1.1-15.6,3-18.7-2.7c-1.1-2-0.5-4.4-0.4-6.6c0.1-9.5-4.2-18.5-9.9-25.9
			c-2.9-3.6-6.9-7.8-12-6.9c-5,0-21.3,4.1-17.3-5.6c3.8-9.8,6.8-20,6.9-30.6c0.2-10-3.6-19.7-14-22.8c-10.9-3.9-22.2-6.6-32.7-11.3
			c-4.2-2-11.5-5.8-6.6-10.7c4-4.2,9-7.3,12.8-11.9c0.5-0.7,1.1-1.6,1.5-2.5c0.6-1.5,0.7-3.2,0.5-4.8c-0.6-4.7-3.5-8.8-4.6-13.2
			c-1.8-8.7,10.8-5.4,8.7-20.8l-0.2-3.5c-0.1-2.3-0.2-4.6,0.1-6.7c0.9-4.3,3.8-8.2,6-12c7.1-12,16.8-22,24.6-33.5
			c3-4.8,7-10.2,7-16.1c0-1.2-0.5-2.6-1.4-3.6c-0.8-0.9-1.4-1.6-1.9-2.6c-3.3-8,4.2-21.5,7.4-29.1c3.4-7.3,8.9-17.9,11.6-25.3
			c2.1-5.4,3.4-11.1,3.9-16.9c0.3-5.4,2.7-4.8,7-4.8v-0.2c-1.2,0-2.3-0.1-3.5,0c-1.2,0.1-2.5,0.4-3.1,1.5c-0.6,1.1-0.7,2.3-0.8,3.4
			c-1,10.4-5.3,20-10,29.3c-4.6,10-11.1,21.2-13.9,31.9c-1.2,4.5-1.4,10.2,2.2,13.6c2.8,3.3-0.5,8.8-2.2,12.1
			c-8.2,14-20.2,25.3-28.6,39.2c-2.4,4.1-5.4,7.9-6.4,12.7c-0.6,3.5-0.1,7.2,0.1,10.6c2.2,14.2-10.7,10.4-8.7,21.1
			c1.3,6.2,7.5,12.7,3,18.8c-2.3,2.8-5.5,5.2-8.3,7.7c-8.5,5.8-20.3,0.9-28.8-3.3c-10-5.1-19.6-11.4-26.4-20.4
			c-2.8-3.6-5.6-7.3-9.1-10.2c-3.3-3-8.4-6.5-12.9-3.7c-4.2,2.4-5.7,7-9.1,10.2c-5.5,5.3-12.3,9.8-19.7,11.7c-1,0.2-2.2,0.2-2.2-0.2
			c-1.7-4.1-3.2-8.5-5.5-12.4c-4.4-8.3-12.5-15.1-22.4-14c-9.1,0.8-18.2,2-26.7,5.4c-4.1,1.7-8,4-10.9,7.4
			c-10.8-5.7-20.7-15.3-22.8-27.8c-0.5-3.3-2.8-6.6-6.3-7.3c-6.6-1.2-12.8,2.3-18.3,5.5c-2.7,1.8-5.6,3.4-7.7,5.9
			c-0.7,1.4-0.7,3.3-1,4.8c-0.6,4.7-2.1,9.4-5.5,12.8c-2,2.3-12.4,9.1-13.3,3.2c-0.5-4,1.6-7.9,1-11.9c-0.1-0.4-0.3-0.9-0.8-1.2
			s-1-0.2-1.4-0.1c-5.2,2.1-10.5,16-12.9,22c-3.6-6.2-7.2-12.5-12.4-17.6c-1.8-1.6-3.9-2.5-5.3,0.2c-1,1.5-2.1,3-3.3,4.4
			c-1.7,1.9-3.6,4.2-6.3,4.2c-5.7-0.9-6.1-14.4-7.3-19.1c-1.6-6.4-4.2-12.6-8.1-17.8c-5.5-7.6-13.5-13.8-22.8-15.9
			c-7.3-1.5-10.8,2.2-5.3-7.1c2.9-4.6,6-9.6,8.3-14.6c1.6-3.4,2.8-7,3.4-10.8c0.5-3.3,1.2-7.1,4-9.2c1.8-1.4,4.4-1.2,6.7-0.9
			c0.2,0,0.8,0.1,1.3-0.1c0.3-0.1,0.6-0.4,0.7-0.8c0.2-0.6-0.1-1.3-0.4-1.8c-0.3-0.5-0.6-1-1-1.4c-5.9-5.5-17.3-15.6-22.9-21
			c-2-2.1-3.5-4.5-4.6-7.2c-0.7-1.4-1.2-2.9-2.3-4.2c-2.6-2.8-6.9-1.3-10.1-0.5c-8.5,2.4-12.2-11.1-15.1-16.9
			c-1.7-3.4-3.3-7.6-7.1-9.2c-2.3-0.8-5,0.1-7.2,0.8c-2.9,1-5.6,2.3-8.3,3.5c-3.3,1.4-6.5,3.3-10.1,3.6c-1.4,0-1.5-0.9-1.4-2.1
			c0.6-3.7,2.2-7.2,1.4-11.2c-0.4-2.9-2.8-5.2-5.6-5.8c4.1-5.6,9.7-10.7,16.6-12.3c4.1-0.8,8.1,0,12.3-0.7c2.5-0.4,4.5-1.9,6.5-3.2
			c4-2.5,8.1-4.7,12.7-5.6c7.9-1.6,13.5-3.3,17.6-10.9c4.6-8.6,15.2-11.1,24.3-11c2.3,0.1,4.7,0.2,7,0.8l0.1-0.2
			c-2.3-0.7-4.7-0.9-7-1c-9.3-0.4-20.1,2.1-25,10.9c-2.3,4-5.8,7.4-10.3,8.6c-4.5,1.3-9.3,1.8-13.7,3.8c-2.2,1-4.2,2.2-6.3,3.4
			c-2.1,1.2-3.9,2.7-6.1,2.9c-4,0.6-8.4-0.3-12.4,0.6c-7.8,1.7-14,7.5-18.5,13.8l-0.8,1.2c5.9-0.4,7.8,3.6,6.9,8.8
			C6.1,487.1,2.3,494,8,494.4c3.9-0.2,7.4-2.2,10.9-3.6c4-1.7,8-3.8,12.2-4.3c2.8-0.3,4.4,2.3,5.8,4.5c4.2,6.8,7.1,21.4,16.4,22.3
			c3.2,0.2,6.5-1.9,9.7-1.3c2,0.5,2.3,2.6,3.3,4.4c1.5,3.5,3.8,6.8,6.7,9.4c0.6,0.6,7.6,7,8.2,7.5l13.1,11.9
			c0.1,0.2,0.3,0.4,0.4,0.5c-5.2-0.7-9,1.2-10.9,6.4c-0.7,1.8-1,3.8-1.3,5.6c-0.5,3.5-1.8,7-3.2,10.3c-2.2,4.8-5.3,9.8-8.1,14.4
			c-1.2,2.4-5.1,7.5-1.1,9.2c2.4,0.6,5.1-0.1,7.7,0.6c11.6,2.6,21,11.7,26.2,22.1c1.7,3.2,2.8,6.8,3.8,10.3c1.4,5.3,1.8,19.2,8.6,20
			c3.1,0,5.3-2.6,7.2-4.7c1.5-1.7,2.7-3.8,4-5.6c1-0.7,2.1,0.4,3,1c5.3,5.1,9,11.7,12.8,17.9l0.4,0.8c2.3-6.2,4.9-12.5,8.3-18.2
			c1.3-1.9,2.5-4.2,4.7-5c0.7-0.2,1.3,0,1.4,0.8c0.9,3.9-4.6,15.1,2.7,14.7c7.2-1.2,13.5-7,15.3-14.1c0.7-2.2,1-4.8,1.3-7.1
			c0.2-1.2,0.3-2.2,1.3-3c6-4.9,16.6-11.6,24.5-10c5.4,1.4,5.3,6.9,6.6,11.3c1.5,4.6,4.1,9,7.3,12.6c4.3,4.9,9.5,8.9,15.3,11.9
			l0.5,0.3l0.4-0.5c8.3-9.7,24.9-11.4,37-12.5c11.9-1.4,19.7,9.2,23.7,19.1c0.9,2.1,1.6,4.2,2.6,6.3c0.1,0.2,0.6,0.8,1,0.9
			c1,0.4,2,0.2,3,0c3.4-0.8,6.6-2.3,9.6-4c4-2.3,7.7-5,11-8.3c4.3-4,7.1-13.4,14.5-10.2c6,3,10.4,8.4,14.5,13.6
			c2.8,3.6,6,6.8,9.6,9.7c7.1,5.6,15.2,10,23.6,13.4c6.7,2.6,15.3,4.5,21.8,0.9c-0.2,0.2-0.4,0.3-0.5,0.5c-4.8,3.8-7.1,8.5-1.5,12.9
			c3.8,3,8.3,4.6,12.7,6.3c8.7,3.1,17.7,5.5,26.4,8.6c4.2,1.3,8,4,10,8c5.9,11.8,1.4,27.9-2.6,39.8c-1.2,3.2-3.6,8.1,0.1,10.5
			c1.2,0.8,2.4,1,3.6,1.2c4.7,0.5,9.3-0.4,14-0.8c2.3-0.3,4.2,0,6.1,1.5c7,5.6,11.6,14.4,13.8,23c0.9,3.4,0.8,6.8,0.5,10.2
			c-0.3,7.4,8.1,8.5,13.8,7.9c2-0.2,3.9-0.5,5.8-0.9c-5.5,8.1-7.2,18.6,4.3,22.4c4.9,1.7,10.2,2.5,15.4,1.7c6.1-0.8,11.8-4.3,18-4.1
			c2.1,0.1,4.1,0.3,6.2,0.6c6.7,1,12.8,0.9,17.1-5.1c1.2-1.7,2.3-3.4,3.7-4.9c5.7-6.5,14.1-9.4,20.7-14.9c1.4-1.3,2-3.3,2.3-5.1
			c0.7-4.2,0.7-8.3,1-12.4c0.4-3.9,0.5-8.3,3.2-11.3c1.3-1.6,3.5-1.7,5.3-2.4c6.3-2.2,10-9.8,7.5-16.1
			C610.4,749.5,606.3,747.4,603.6,744.3z"/>
		<path class="st4" d="M139.4,37c3.3,0.2,6.7,0.7,10,0.5c10.1-0.8,18.8-7.1,26.9-12.7c5.3-3.8,10.6-7.8,16.8-10.1
			c12.9-4.7,24.4,8.2,35,13.8c4.3,2.4,10.1,4.3,15,2.1c3.1-1.3,5.7-3.3,8.9-3.9c3-0.7,6.4,0.2,9.3,1.1c4.6,1.6,8.9,4,12.4,7.3
			c2.3,2.3,4.3,4.9,5.7,7.8c1.4,3,1.9,6.5,4.1,9.2c1.1,1.4,2.4,2.6,3.9,3.5c1.3,0.9,3.2,1.3,4.4,2.1c2.2,2.1-0.5,6.2-1.4,8.6
			c-0.6,1.5-1.7,3.5-0.6,5.1c9.5,12.3,22.8,25.6,31.4,38.6c3,4,3.2,9.8,7.6,12.8c1,0.7,2.5,0.9,3.6,1.1c2.3,0.6,0.7,3.3-0.2,4.5
			c-1,1.5-1.1,3.4-0.8,5.1c1,5.1,5.2,9.3,10.3,10.3c3.3,0.6,6.8,0.3,10.1-0.1c3.4-0.7,6,1.5,9.1,2.7c3.4,1.7,7.5-0.1,9.3-3.2
			c2.1-3.3,3.5-7.2,2.8-11.2c-2.9-7.2-6.6-10.9,4.3-10.5c9.7,0.1,19.9,0.5,29,4c2.8,1.2,5.8,2.8,7.1,5.5c1.2,2.9,2,6.2,2.6,9.3
			c1.2,5,1,13.8,5.8,16.9c5.1,2.2,11.1-6.6,15.5-8.4c3-1.5,5.5,1.2,8.1,2.5c7.8,4.9,16.4,3.6,24.8,1.4c2.4-0.5,4.6-1.7,7-1.8
			c2.4,0,4.7,1,7.2,1.4c1.8,0.3,3.7,0.2,5.5-0.7c1.7-0.9,3-2.4,3.9-3.9c0.8-1.2,1.1-2.7,2-3.8c2.8-1,9.5-1.1,10.7-4.5
			c0.1-0.4,0.2-0.9,0.2-1.3c0.6-5.8,3.5-10.8,10-9.9c4.8,0.3,9.4,3.7,14.4,3.7c3.8-0.1,5.6,0.9,5.9,4.8c0.1,1.5,0,3.4,0.5,5.1
			c0.9,3.4,3.1,6.2,5.4,8.6c2.3,2.4,4.8,4.5,7,7.1c2.2,2.5,5.3,4.5,8.6,5.2c10.4,1.4,23.3,1,16.1,15.5l0.2,0.1
			c0.8-1.5,1.4-3,1.8-4.6c2.9-10.8-10.9-10.5-18-11.8c-4.1-0.8-7.2-3.7-9.7-6.9c-1.6-1.9-3.6-3.5-5.2-5.3c-2.2-2.4-4.2-5.1-5-8.1
			c-0.8-3.1,0.5-7.4-2.4-9.8c-1.9-1.5-4.3-1.2-6.4-1.3c-1.2-0.1-2.2-0.5-3.4-0.9c-3.1-1.1-6.2-2.5-9.7-2.9
			c-7.8-0.9-11.4,4.9-12.1,11.9v0.3v0.1v0.1c0,0.1-0.2,0.3-0.2,0.4l-0.2,0.1c-1.8,1.3-4.4,1.6-6.6,2.1c-1,0.2-2.1,0.3-3.1,0.9
			c-0.7,0.6-1,1.4-1.4,2.2c-3.1,7.3-6.8,6.2-13.2,4.6c-3.4-1-6.9,0.7-10.1,1.5c-2.2,0.6-4.9,1.1-7.2,1.5c-5.5,1-11.3,0.3-16.1-2.7
			c-2.2-1.2-4.5-3.1-7.2-3.2c-2.8-0.1-5.2,2-7.2,3.5c-2.5,1.9-4.9,4.5-7.7,5.5c-4.9,1.5-5.5-12-6.4-15.4c-0.7-3.3-1.4-6.6-2.8-9.8
			c-3.5-6.2-11.6-7.7-18-9c-6.6-1.1-13.3-1.4-20-1.3c-3.2,0-9-0.2-8.9,4.3c0.3,3.2,2.2,5.4,3.2,8.3c0.6,3.4-0.7,7.2-2.5,10
			c-3.8,5.5-7.5,3-12.3,0.8c-1.5-0.7-3.5-1-5.1-0.7c-4.7,0.5-10,1.2-14.1-1.6c-3.7-2.4-7-7.9-4.7-12.2c0.5-0.7,1-1.4,1.3-2.2
			c0.3-0.8,0.5-2-0.2-2.7c-0.3-0.4-0.8-0.6-1.2-0.7c-7.2-0.3-7.4-8.9-10.9-13.5c-4.6-6.9-10-13.3-15.3-19.6
			c-5.2-6.4-11-12.4-15.8-19c-0.5-0.6-0.3-1.3-0.1-2c0.7-2.4,2.1-4.5,2.8-6.9c0.8-2.2,0.7-5-2-5.9c-2.6-0.9-5.1-2.4-6.7-4.7
			c-2-2.6-2.5-6-3.8-9c-1.4-3.1-3.5-5.9-5.9-8.3c-4.2-4.2-9.7-7-15.4-8.6c-12.4-3.7-15.2,7.4-26.1,3.4c-7.7-2.9-13.9-8.7-21.1-12.7
			c-3.7-2-7.7-3.9-12-4.2c-9.3-0.6-17.5,6.6-24.7,11.7c-5.3,3.9-10.8,7.7-16.8,10.4c-3,1.3-6.2,2.2-9.4,2.5
			c-3.2,0.3-6.6-0.2-9.8-0.3c-6.2-1.2-10.1-8.8-12.6-14.1l-0.2,0.1c1.3,3.1,2.8,6,4.8,8.7C133.4,33.7,135.9,36.4,139.4,37z"/>
		<path class="st5" d="M201.6,217h-3.4v-12c0-0.2,0-0.5-0.1-0.7c-0.1-0.2-0.2-0.4-0.4-0.5c-0.1-0.2-0.3-0.3-0.5-0.4
			c-0.2-0.1-0.4-0.1-0.7-0.1c-0.2,0-0.5,0-0.7,0.1s-0.4,0.2-0.5,0.4c-0.1,0.1-0.3,0.3-0.4,0.5s-0.1,0.4-0.1,0.7v12h-3.4v-12
			c0-0.2,0-0.5-0.1-0.7s-0.2-0.4-0.4-0.5c-0.1-0.2-0.3-0.3-0.5-0.4s-0.4-0.1-0.7-0.1c-0.2,0-0.5,0-0.7,0.1c-0.2,0.1-0.4,0.2-0.5,0.4
			c-0.1,0.1-0.3,0.3-0.4,0.5c-0.1,0.2-0.1,0.4-0.1,0.7v12h-3.4v-12c0-0.7,0.1-1.3,0.4-2c0.3-0.6,0.6-1.2,1.1-1.6
			c0.5-0.5,1-0.8,1.6-1.1c0.6-0.3,1.3-0.4,2-0.4c0.6,0,1.2,0.1,1.8,0.3c0.6,0.2,1.1,0.5,1.6,1c0.5-0.4,1-0.7,1.5-1
			c0.6-0.2,1.2-0.3,1.8-0.3c0.7,0,1.3,0.1,2,0.4c0.6,0.3,1.2,0.6,1.6,1.1c0.5,0.5,0.8,1,1.1,1.6c0.3,0.6,0.4,1.3,0.4,2V217z
			 M216.2,217h-11.5v-16.8h11.5v3.4H208v3.4h5.5v3.4H208v3.4h8.2V217z M225.6,217h-3.4v-13.4h-5.1v-3.4h13.4v3.4h-5V217z M244.4,217
			h-13l7.2-13.4h-7.2v-3.4h13l-7.1,13.4h7.1V217z"/>
		<path class="st5" d="M247.3,601.3h-11.5v-16.8h11.5v3.4h-8.2v3.4h5.5v3.4h-5.5v3.4h8.2V601.3z M253,587.9v6.7h3.4
			c0.5,0,0.9-0.1,1.3-0.3c0.4-0.2,0.8-0.4,1.1-0.7c0.3-0.3,0.5-0.7,0.7-1.1c0.2-0.4,0.3-0.9,0.3-1.3c0-0.5-0.1-0.9-0.3-1.3
			c-0.2-0.4-0.4-0.8-0.7-1.1c-0.3-0.3-0.7-0.5-1.1-0.7c-0.4-0.2-0.8-0.3-1.3-0.3H253z M253,601.3h-3.4v-16.8h6.7
			c0.6,0,1.2,0.1,1.8,0.2c0.6,0.2,1.1,0.4,1.6,0.7c0.5,0.3,1,0.6,1.4,1.1c0.4,0.4,0.8,0.9,1.1,1.4c0.3,0.5,0.5,1,0.7,1.6
			c0.2,0.6,0.2,1.2,0.2,1.8c0,0.9-0.2,1.8-0.5,2.6c-0.4,0.8-0.8,1.5-1.4,2.1c-0.6,0.6-1.3,1.1-2.1,1.4c-0.8,0.4-1.7,0.5-2.6,0.5H253
			V601.3z M268.4,601.3H265v-16.8h3.4V601.3z M285,601.3h-3.6l-6.5-11.1v11.1h-3.4v-16.8h3.6l6.5,11.1v-11.1h3.4V601.3z M298,594.6
			v-3.4c0-0.5-0.1-0.9-0.3-1.3c-0.2-0.4-0.4-0.8-0.7-1.1c-0.3-0.3-0.7-0.5-1.1-0.7c-0.4-0.2-0.8-0.3-1.3-0.3s-0.9,0.1-1.3,0.3
			c-0.4,0.2-0.8,0.4-1.1,0.7c-0.3,0.3-0.5,0.7-0.7,1.1c-0.2,0.4-0.3,0.8-0.3,1.3v3.4H298z M301.4,601.3H298V598h-6.7v3.4h-3.4v-10.1
			c0-0.9,0.2-1.8,0.5-2.6c0.4-0.8,0.8-1.5,1.4-2.1c0.6-0.6,1.3-1.1,2.1-1.4c0.8-0.4,1.7-0.5,2.6-0.5s1.8,0.2,2.6,0.5
			c0.8,0.4,1.5,0.8,2.1,1.4c0.6,0.6,1.1,1.3,1.4,2.1c0.4,0.8,0.5,1.7,0.5,2.6V601.3z M316,601.3h-11.8v-16.8h3.4V598h8.4V601.3z"/>
		<path class="st5" d="M509.5,596.9c-0.8,0.7-1.7,1.2-2.6,1.5s-2,0.5-3,0.5c-0.8,0-1.6-0.1-2.3-0.3c-0.7-0.2-1.4-0.5-2.1-0.9
			c-0.6-0.4-1.2-0.8-1.8-1.4c-0.5-0.5-1-1.1-1.4-1.8c-0.4-0.6-0.7-1.3-0.9-2.1c-0.2-0.7-0.3-1.5-0.3-2.3s0.1-1.6,0.3-2.3
			c0.2-0.7,0.5-1.4,0.9-2.1c0.4-0.6,0.8-1.2,1.4-1.8c0.5-0.5,1.1-1,1.8-1.4c0.6-0.4,1.3-0.7,2.1-0.9c0.7-0.2,1.5-0.3,2.3-0.3
			c1,0,2,0.2,3,0.5c1,0.4,1.8,0.9,2.6,1.5l-1.8,2.9c-0.5-0.5-1.1-0.9-1.7-1.2c-0.7-0.3-1.4-0.4-2.1-0.4c-0.7,0-1.4,0.1-2.1,0.4
			c-0.6,0.3-1.2,0.7-1.7,1.1c-0.5,0.5-0.9,1-1.1,1.7c-0.3,0.6-0.4,1.3-0.4,2.1c0,0.7,0.1,1.4,0.4,2.1c0.3,0.6,0.7,1.2,1.1,1.7
			c0.5,0.5,1.1,0.9,1.7,1.1c0.6,0.3,1.3,0.4,2.1,0.4c0.7,0,1.4-0.1,2.1-0.4c0.7-0.3,1.3-0.7,1.7-1.2L509.5,596.9z M527.5,590.3
			c0,0.8-0.1,1.6-0.3,2.3c-0.2,0.7-0.5,1.4-0.9,2.1c-0.4,0.6-0.8,1.2-1.4,1.8c-0.5,0.5-1.1,1-1.8,1.4c-0.6,0.4-1.3,0.7-2.1,0.9
			c-0.7,0.2-1.5,0.3-2.3,0.3s-1.6-0.1-2.3-0.3c-0.7-0.2-1.4-0.5-2.1-0.9c-0.6-0.4-1.2-0.8-1.8-1.4c-0.5-0.5-1-1.1-1.4-1.8
			c-0.4-0.6-0.7-1.3-0.9-2.1c-0.2-0.7-0.3-1.5-0.3-2.3s0.1-1.6,0.3-2.3c0.2-0.7,0.5-1.4,0.9-2.1c0.4-0.6,0.8-1.2,1.4-1.8
			c0.5-0.5,1.1-1,1.8-1.4c0.6-0.4,1.3-0.7,2.1-0.9c0.7-0.2,1.5-0.3,2.3-0.3s1.6,0.1,2.3,0.3c0.7,0.2,1.4,0.5,2.1,0.9
			c0.6,0.4,1.2,0.8,1.8,1.4c0.5,0.5,1,1.1,1.4,1.8c0.4,0.6,0.7,1.3,0.9,2.1C527.4,588.7,527.5,589.5,527.5,590.3z M524.1,590.3
			c0-0.7-0.1-1.4-0.4-2.1c-0.3-0.7-0.7-1.2-1.1-1.7c-0.5-0.5-1-0.9-1.7-1.1c-0.6-0.3-1.3-0.4-2.1-0.4c-0.7,0-1.4,0.1-2.1,0.4
			c-0.6,0.3-1.2,0.7-1.7,1.1c-0.5,0.5-0.9,1-1.1,1.7c-0.3,0.6-0.4,1.3-0.4,2.1c0,0.7,0.1,1.4,0.4,2.1c0.3,0.6,0.7,1.2,1.1,1.7
			c0.5,0.5,1.1,0.9,1.7,1.1c0.6,0.3,1.3,0.4,2.1,0.4c0.7,0,1.4-0.1,2.1-0.4c0.7-0.3,1.2-0.7,1.7-1.1c0.5-0.5,0.9-1,1.1-1.7
			C524,591.7,524.1,591,524.1,590.3z M541.5,598.6h-11.8v-16.8h3.4v13.4h8.4V598.6z M559.9,598.6h-3.4v-12c0-0.2,0-0.5-0.1-0.7
			c-0.1-0.2-0.2-0.4-0.4-0.5c-0.1-0.2-0.3-0.3-0.5-0.4s-0.4-0.1-0.7-0.1c-0.2,0-0.5,0-0.7,0.1c-0.2,0.1-0.4,0.2-0.5,0.4
			c-0.1,0.1-0.3,0.3-0.4,0.5c-0.1,0.2-0.1,0.4-0.1,0.7v12h-3.4v-12c0-0.2,0-0.5-0.1-0.7c-0.1-0.2-0.2-0.4-0.4-0.5
			c-0.1-0.2-0.3-0.3-0.5-0.4s-0.4-0.1-0.7-0.1c-0.2,0-0.5,0-0.7,0.1s-0.4,0.2-0.5,0.4c-0.1,0.1-0.3,0.3-0.4,0.5
			c-0.1,0.2-0.1,0.4-0.1,0.7v12h-3.4v-12c0-0.7,0.1-1.3,0.4-2c0.3-0.6,0.6-1.2,1.1-1.6c0.5-0.5,1-0.8,1.6-1.1c0.6-0.3,1.3-0.4,2-0.4
			c0.6,0,1.2,0.1,1.8,0.3c0.6,0.2,1.1,0.5,1.6,1c0.5-0.4,1-0.7,1.5-1c0.6-0.2,1.2-0.3,1.8-0.3c0.7,0,1.3,0.1,2,0.4
			c0.6,0.3,1.2,0.6,1.6,1.1c0.5,0.5,0.8,1,1.1,1.6c0.3,0.6,0.4,1.3,0.4,2V598.6z M572.8,591.9v-3.4c0-0.5-0.1-0.9-0.3-1.3
			c-0.2-0.4-0.4-0.8-0.7-1.1c-0.3-0.3-0.7-0.5-1.1-0.7c-0.4-0.2-0.8-0.3-1.3-0.3s-0.9,0.1-1.3,0.3c-0.4,0.2-0.8,0.4-1.1,0.7
			c-0.3,0.3-0.5,0.7-0.7,1.1c-0.2,0.4-0.3,0.8-0.3,1.3v3.4H572.8z M576.2,598.6h-3.4v-3.4h-6.7v3.4h-3.4v-10.1
			c0-0.9,0.2-1.8,0.5-2.6c0.4-0.8,0.8-1.5,1.4-2.1c0.6-0.6,1.3-1.1,2.1-1.4c0.8-0.4,1.7-0.5,2.6-0.5s1.8,0.2,2.6,0.5
			c0.8,0.4,1.5,0.8,2.1,1.4c0.6,0.6,1.1,1.3,1.4,2.1c0.4,0.8,0.5,1.7,0.5,2.6V598.6z M582.4,585.2v6.7h3.4c0.5,0,0.9-0.1,1.3-0.3
			c0.4-0.2,0.8-0.4,1.1-0.7c0.3-0.3,0.5-0.7,0.7-1.1c0.2-0.4,0.3-0.9,0.3-1.3c0-0.5-0.1-0.9-0.3-1.3c-0.2-0.4-0.4-0.8-0.7-1.1
			c-0.3-0.3-0.7-0.5-1.1-0.7c-0.4-0.2-0.8-0.3-1.3-0.3H582.4z M582.4,598.6h-3.4v-16.8h6.7c0.6,0,1.2,0.1,1.8,0.2
			c0.6,0.2,1.1,0.4,1.6,0.7c0.5,0.3,1,0.6,1.4,1.1c0.4,0.4,0.8,0.9,1.1,1.4c0.3,0.5,0.5,1,0.7,1.6c0.2,0.6,0.2,1.2,0.2,1.8
			c0,0.6-0.1,1.1-0.2,1.7c-0.1,0.5-0.3,1.1-0.6,1.6c-0.3,0.5-0.6,0.9-1,1.4c-0.4,0.4-0.8,0.8-1.3,1.1l1.9,4.4h-3.6l-1.5-3.4l-3.8,0
			V598.6z"/>
		<path class="st5" d="M218.8,392.2h-3.6l-6.5-11.1v11.1h-3.4v-16.8h3.6l6.5,11.1v-11.1h3.4V392.2z M231.8,385.5v-3.4
			c0-0.5-0.1-0.9-0.3-1.3c-0.2-0.4-0.4-0.8-0.7-1.1c-0.3-0.3-0.7-0.5-1.1-0.7c-0.4-0.2-0.8-0.3-1.3-0.3c-0.5,0-0.9,0.1-1.3,0.3
			c-0.4,0.2-0.8,0.4-1.1,0.7c-0.3,0.3-0.5,0.7-0.7,1.1c-0.2,0.4-0.3,0.8-0.3,1.3v3.4H231.8z M235.2,392.2h-3.4v-3.4h-6.7v3.4h-3.4
			v-10.1c0-0.9,0.2-1.8,0.5-2.6c0.4-0.8,0.8-1.5,1.4-2.1c0.6-0.6,1.3-1.1,2.1-1.4c0.8-0.4,1.7-0.5,2.6-0.5c0.9,0,1.8,0.2,2.6,0.5
			c0.8,0.4,1.5,0.8,2.1,1.4c0.6,0.6,1.1,1.3,1.4,2.1c0.4,0.8,0.5,1.7,0.5,2.6V392.2z M251.5,392.2h-3.6l-6.5-11.1v11.1h-3.4v-16.8
			h3.6l6.5,11.1v-11.1h3.4V392.2z M268.1,390.5c-0.8,0.7-1.7,1.2-2.6,1.5c-1,0.4-2,0.5-3,0.5c-0.8,0-1.6-0.1-2.3-0.3
			c-0.7-0.2-1.4-0.5-2.1-0.9c-0.6-0.4-1.2-0.8-1.8-1.4c-0.5-0.5-1-1.1-1.4-1.8c-0.4-0.6-0.7-1.3-0.9-2.1c-0.2-0.7-0.3-1.5-0.3-2.3
			s0.1-1.6,0.3-2.3c0.2-0.7,0.5-1.4,0.9-2.1c0.4-0.6,0.8-1.2,1.4-1.8c0.5-0.5,1.1-1,1.8-1.4c0.6-0.4,1.3-0.7,2.1-0.9
			c0.7-0.2,1.5-0.3,2.3-0.3c1,0,2,0.2,3,0.5c1,0.4,1.8,0.9,2.6,1.5l-1.8,2.9c-0.5-0.5-1.1-0.9-1.7-1.2c-0.7-0.3-1.4-0.4-2.1-0.4
			c-0.7,0-1.4,0.1-2.1,0.4c-0.6,0.3-1.2,0.7-1.7,1.1c-0.5,0.5-0.9,1-1.1,1.7c-0.3,0.6-0.4,1.3-0.4,2.1c0,0.7,0.1,1.4,0.4,2.1
			c0.3,0.6,0.7,1.2,1.1,1.7c0.5,0.5,1.1,0.9,1.7,1.1c0.6,0.3,1.3,0.4,2.1,0.4c0.7,0,1.4-0.1,2.1-0.4c0.7-0.3,1.3-0.7,1.7-1.2
			L268.1,390.5z M277.6,392.2h-3.4V387c-0.7-0.2-1.4-0.5-2.1-0.9c-0.6-0.4-1.1-0.9-1.6-1.5c-0.4-0.6-0.8-1.2-1-1.9
			c-0.2-0.7-0.4-1.4-0.4-2.2v-5h3.4v5c0,0.5,0.1,0.9,0.3,1.3c0.2,0.4,0.4,0.8,0.7,1.1c0.3,0.3,0.7,0.5,1.1,0.7
			c0.4,0.2,0.9,0.3,1.3,0.3c0.5,0,0.9-0.1,1.3-0.3c0.4-0.2,0.8-0.4,1.1-0.7c0.3-0.3,0.5-0.7,0.7-1.1c0.2-0.4,0.3-0.9,0.3-1.3v-5h3.4
			v5c0,0.8-0.1,1.5-0.4,2.2c-0.2,0.7-0.6,1.3-1,1.9c-0.4,0.6-1,1.1-1.6,1.5c-0.6,0.4-1.3,0.7-2,0.9V392.2z"/>
		<path class="st2" d="M750.4,351.2H536.7v41h213.7V351.2z"/>
		<path class="st5" d="M545.8,372.7c0-0.7,0.1-1.3,0.4-2c0.3-0.6,0.6-1.1,1.1-1.6c0.5-0.5,1-0.8,1.6-1.1c0.6-0.3,1.3-0.4,2-0.4h7.7
			v3.4h-7.7c-0.2,0-0.5,0-0.7,0.1c-0.2,0.1-0.4,0.2-0.5,0.4c-0.1,0.1-0.3,0.3-0.4,0.5c-0.1,0.2-0.1,0.4-0.1,0.7c0,0.2,0,0.5,0.1,0.7
			c0.1,0.2,0.2,0.4,0.4,0.5c0.2,0.1,0.3,0.3,0.5,0.4c0.2,0.1,0.4,0.1,0.7,0.1h3.4c0.7,0,1.3,0.1,2,0.4c0.6,0.3,1.2,0.6,1.6,1.1
			c0.5,0.5,0.8,1,1.1,1.6c0.3,0.6,0.4,1.3,0.4,2c0,0.7-0.1,1.3-0.4,2c-0.3,0.6-0.6,1.1-1.1,1.6c-0.5,0.5-1,0.8-1.6,1.1
			c-0.6,0.3-1.3,0.4-2,0.4h-7.5v-3.4h7.5c0.2,0,0.5,0,0.7-0.1c0.2-0.1,0.4-0.2,0.5-0.4c0.2-0.2,0.3-0.3,0.4-0.5
			c0.1-0.2,0.1-0.4,0.1-0.7c0-0.2,0-0.5-0.1-0.7c-0.1-0.2-0.2-0.4-0.4-0.5c-0.1-0.2-0.3-0.3-0.5-0.4c-0.2-0.1-0.4-0.1-0.7-0.1h-3.4
			c-0.7,0-1.3-0.1-2-0.4c-0.6-0.3-1.1-0.6-1.6-1.1c-0.5-0.5-0.8-1-1.1-1.6C545.9,374,545.8,373.4,545.8,372.7z M568.2,384.4h-3.4
			V371h-5.1v-3.4h13.4v3.4h-5V384.4z M578.4,371v6.7h3.4c0.5,0,0.9-0.1,1.3-0.3c0.4-0.2,0.8-0.4,1.1-0.7c0.3-0.3,0.5-0.7,0.7-1.1
			c0.2-0.4,0.3-0.9,0.3-1.3s-0.1-0.9-0.3-1.3c-0.2-0.4-0.4-0.8-0.7-1.1c-0.3-0.3-0.7-0.5-1.1-0.7c-0.4-0.2-0.8-0.3-1.3-0.3H578.4z
			 M578.4,384.4h-3.4v-16.8h6.7c0.6,0,1.2,0.1,1.8,0.2c0.6,0.2,1.1,0.4,1.6,0.7c0.5,0.3,1,0.6,1.4,1.1c0.4,0.4,0.8,0.9,1.1,1.4
			c0.3,0.5,0.5,1,0.7,1.6c0.2,0.6,0.2,1.2,0.2,1.8c0,0.6-0.1,1.1-0.2,1.7c-0.1,0.5-0.3,1.1-0.6,1.6c-0.3,0.5-0.6,0.9-1,1.4
			c-0.4,0.4-0.8,0.8-1.3,1.1l1.9,4.4h-3.6l-1.5-3.4l-3.8,0V384.4z M600.6,377.7v-3.4c0-0.5-0.1-0.9-0.3-1.3
			c-0.2-0.4-0.4-0.8-0.7-1.1c-0.3-0.3-0.7-0.5-1.1-0.7c-0.4-0.2-0.8-0.3-1.3-0.3s-0.9,0.1-1.3,0.3c-0.4,0.2-0.8,0.4-1.1,0.7
			c-0.3,0.3-0.5,0.7-0.7,1.1c-0.2,0.4-0.3,0.8-0.3,1.3v3.4H600.6z M604,384.4h-3.4v-3.4h-6.7v3.4h-3.4v-10.1c0-0.9,0.2-1.8,0.5-2.6
			c0.4-0.8,0.8-1.5,1.4-2.1c0.6-0.6,1.3-1.1,2.1-1.4c0.8-0.4,1.7-0.5,2.6-0.5c0.9,0,1.8,0.2,2.6,0.5c0.8,0.4,1.5,0.8,2.1,1.4
			c0.6,0.6,1.1,1.3,1.4,2.1c0.4,0.8,0.5,1.7,0.5,2.6V384.4z M605.9,372.7c0-0.7,0.1-1.3,0.4-2c0.3-0.6,0.6-1.1,1.1-1.6
			c0.5-0.5,1-0.8,1.6-1.1c0.6-0.3,1.3-0.4,2-0.4h7.7v3.4H611c-0.2,0-0.5,0-0.7,0.1s-0.4,0.2-0.5,0.4c-0.1,0.1-0.3,0.3-0.4,0.5
			c-0.1,0.2-0.1,0.4-0.1,0.7c0,0.2,0,0.5,0.1,0.7c0.1,0.2,0.2,0.4,0.4,0.5c0.2,0.1,0.3,0.3,0.5,0.4s0.4,0.1,0.7,0.1h3.4
			c0.7,0,1.3,0.1,2,0.4c0.6,0.3,1.2,0.6,1.6,1.1c0.5,0.5,0.8,1,1.1,1.6c0.3,0.6,0.4,1.3,0.4,2c0,0.7-0.1,1.3-0.4,2
			c-0.3,0.6-0.6,1.1-1.1,1.6c-0.5,0.5-1,0.8-1.6,1.1c-0.6,0.3-1.3,0.4-2,0.4h-7.5v-3.4h7.5c0.2,0,0.5,0,0.7-0.1s0.4-0.2,0.5-0.4
			c0.2-0.2,0.3-0.3,0.4-0.5c0.1-0.2,0.1-0.4,0.1-0.7c0-0.2,0-0.5-0.1-0.7c-0.1-0.2-0.2-0.4-0.4-0.5c-0.1-0.2-0.3-0.3-0.5-0.4
			s-0.4-0.1-0.7-0.1H611c-0.7,0-1.3-0.1-2-0.4c-0.6-0.3-1.1-0.6-1.6-1.1c-0.5-0.5-0.8-1-1.1-1.6C606,374,605.9,373.4,605.9,372.7z
			 M635,379.4c0,0.7-0.1,1.3-0.4,2c-0.3,0.6-0.6,1.1-1.1,1.6c-0.5,0.5-1,0.8-1.6,1.1c-0.6,0.3-1.3,0.4-2,0.4h-8.4v-16.8h8.4
			c0.7,0,1.3,0.1,2,0.4c0.6,0.3,1.1,0.6,1.6,1.1c0.5,0.5,0.8,1,1.1,1.6c0.3,0.6,0.4,1.3,0.4,2c0,0.3,0,0.6-0.1,1
			c-0.1,0.3-0.2,0.6-0.4,0.9c-0.2,0.3-0.3,0.6-0.6,0.8c-0.2,0.2-0.5,0.5-0.7,0.6c0.3,0.1,0.5,0.4,0.7,0.6c0.2,0.2,0.4,0.5,0.6,0.8
			c0.2,0.3,0.3,0.6,0.4,1C635,378.8,635,379.1,635,379.4z M624.9,381.1h5c0.2,0,0.5,0,0.7-0.1c0.2-0.1,0.4-0.2,0.5-0.4
			c0.2-0.2,0.3-0.3,0.4-0.5c0.1-0.2,0.1-0.4,0.1-0.7c0-0.2,0-0.5-0.1-0.7c-0.1-0.2-0.2-0.4-0.4-0.5c-0.1-0.2-0.3-0.3-0.5-0.4
			c-0.2-0.1-0.4-0.1-0.7-0.1h-5V381.1z M624.9,374.4h5c0.2,0,0.5,0,0.7-0.1c0.2-0.1,0.4-0.2,0.5-0.4c0.2-0.2,0.3-0.3,0.4-0.5
			c0.1-0.2,0.1-0.4,0.1-0.7c0-0.2,0-0.5-0.1-0.7c-0.1-0.2-0.2-0.4-0.4-0.5c-0.1-0.2-0.3-0.3-0.5-0.4c-0.2-0.1-0.4-0.1-0.7-0.1h-5
			V374.4z M654,376.1c0,0.8-0.1,1.6-0.3,2.3c-0.2,0.7-0.5,1.4-0.9,2.1c-0.4,0.6-0.8,1.2-1.4,1.8c-0.5,0.5-1.1,1-1.8,1.4
			c-0.6,0.4-1.3,0.7-2.1,0.9c-0.7,0.2-1.5,0.3-2.3,0.3s-1.6-0.1-2.3-0.3c-0.7-0.2-1.4-0.5-2.1-0.9c-0.6-0.4-1.2-0.8-1.8-1.4
			c-0.5-0.5-1-1.1-1.4-1.8c-0.4-0.6-0.7-1.3-0.9-2.1c-0.2-0.7-0.3-1.5-0.3-2.3s0.1-1.6,0.3-2.3c0.2-0.7,0.5-1.4,0.9-2.1
			c0.4-0.6,0.8-1.2,1.4-1.8c0.5-0.5,1.1-1,1.8-1.4c0.6-0.4,1.3-0.7,2.1-0.9c0.7-0.2,1.5-0.3,2.3-0.3s1.6,0.1,2.3,0.3
			c0.7,0.2,1.4,0.5,2.1,0.9s1.2,0.8,1.8,1.4c0.5,0.5,1,1.1,1.4,1.8c0.4,0.6,0.7,1.3,0.9,2.1C653.9,374.5,654,375.3,654,376.1z
			 M650.7,376.1c0-0.7-0.1-1.4-0.4-2.1c-0.3-0.7-0.7-1.2-1.1-1.7c-0.5-0.5-1-0.9-1.7-1.1c-0.6-0.3-1.3-0.4-2.1-0.4
			c-0.7,0-1.4,0.1-2.1,0.4c-0.6,0.3-1.2,0.7-1.7,1.1c-0.5,0.5-0.9,1-1.1,1.7c-0.3,0.6-0.4,1.3-0.4,2.1c0,0.7,0.1,1.4,0.4,2.1
			c0.3,0.6,0.7,1.2,1.1,1.7c0.5,0.5,1.1,0.9,1.7,1.1c0.6,0.3,1.3,0.4,2.1,0.4c0.7,0,1.4-0.1,2.1-0.4c0.7-0.3,1.2-0.7,1.7-1.1
			c0.5-0.5,0.9-1,1.1-1.7C650.5,377.5,650.7,376.8,650.7,376.1z M669.5,377.7c0,0.9-0.2,1.8-0.5,2.6c-0.4,0.8-0.8,1.5-1.4,2.1
			c-0.6,0.6-1.3,1.1-2.1,1.4c-0.8,0.4-1.7,0.5-2.6,0.5c-0.9,0-1.8-0.2-2.6-0.5c-0.8-0.4-1.5-0.8-2.1-1.4c-0.6-0.6-1.1-1.3-1.4-2.1
			c-0.4-0.8-0.5-1.7-0.5-2.6v-10.1h3.4v10.1c0,0.5,0.1,0.9,0.3,1.3c0.2,0.4,0.4,0.8,0.7,1.1c0.3,0.3,0.7,0.5,1.1,0.7
			c0.4,0.2,0.9,0.3,1.3,0.3s0.9-0.1,1.3-0.3c0.4-0.2,0.8-0.4,1.1-0.7c0.3-0.3,0.5-0.7,0.7-1.1c0.2-0.4,0.3-0.8,0.3-1.3v-10.1h3.4
			V377.7z M675.8,371v6.7h3.4c0.5,0,0.9-0.1,1.3-0.3c0.4-0.2,0.8-0.4,1.1-0.7c0.3-0.3,0.5-0.7,0.7-1.1c0.2-0.4,0.3-0.9,0.3-1.3
			s-0.1-0.9-0.3-1.3c-0.2-0.4-0.4-0.8-0.7-1.1c-0.3-0.3-0.7-0.5-1.1-0.7c-0.4-0.2-0.8-0.3-1.3-0.3H675.8z M675.8,384.4h-3.4v-16.8
			h6.7c0.6,0,1.2,0.1,1.8,0.2c0.6,0.2,1.1,0.4,1.6,0.7c0.5,0.3,1,0.6,1.4,1.1c0.4,0.4,0.8,0.9,1.1,1.4c0.3,0.5,0.5,1,0.7,1.6
			c0.2,0.6,0.2,1.2,0.2,1.8c0,0.6-0.1,1.1-0.2,1.7c-0.1,0.5-0.3,1.1-0.6,1.6c-0.3,0.5-0.6,0.9-1,1.4c-0.4,0.4-0.8,0.8-1.3,1.1
			l1.9,4.4H681l-1.5-3.4l-3.8,0V384.4z M701.4,382.7c-0.8,0.7-1.7,1.2-2.6,1.5c-1,0.4-2,0.5-3,0.5c-0.8,0-1.6-0.1-2.3-0.3
			c-0.7-0.2-1.4-0.5-2.1-0.9c-0.6-0.4-1.2-0.8-1.8-1.4c-0.5-0.5-1-1.1-1.4-1.8c-0.4-0.6-0.7-1.3-0.9-2.1c-0.2-0.7-0.3-1.5-0.3-2.3
			s0.1-1.6,0.3-2.3c0.2-0.7,0.5-1.4,0.9-2.1c0.4-0.6,0.8-1.2,1.4-1.8c0.5-0.5,1.1-1,1.8-1.4c0.6-0.4,1.3-0.7,2.1-0.9
			c0.7-0.2,1.5-0.3,2.3-0.3c1,0,2,0.2,3,0.5c1,0.4,1.8,0.9,2.6,1.5l-1.8,2.9c-0.5-0.5-1.1-0.9-1.8-1.2c-0.7-0.3-1.4-0.4-2.1-0.4
			c-0.7,0-1.4,0.1-2.1,0.4c-0.6,0.3-1.2,0.7-1.7,1.1c-0.5,0.5-0.9,1-1.1,1.7c-0.3,0.6-0.4,1.3-0.4,2.1c0,0.7,0.1,1.4,0.4,2.1
			c0.3,0.6,0.7,1.2,1.1,1.7c0.5,0.5,1,0.9,1.7,1.1c0.6,0.3,1.3,0.4,2.1,0.4c0.4,0,0.8,0,1.2-0.2c0.4-0.1,0.8-0.2,1.1-0.4v-4.8h3.2
			V382.7z"/>
		<path class="st6" d="M395.7,269.6c5.4-6.8,17.7-23.2,17.7-32.4c0-11.2-9.1-20.2-20.2-20.2c-11.1,0-20.2,9.1-20.2,20.2
			c0,9.2,12.3,25.6,17.7,32.4C392,271.3,394.4,271.3,395.7,269.6z M393.2,230.5c3.7,0,6.7,3,6.7,6.7s-3,6.7-6.7,6.7
			c-3.7,0-6.7-3-6.7-6.7C386.4,233.6,389.5,230.5,393.2,230.5z"/>
		<path class="st6" d="M390.7,543.6c5.4-6.8,17.7-23.2,17.7-32.4c0-11.2-9.1-20.2-20.2-20.2c-11.1,0-20.2,9.1-20.2,20.2
			c0,9.2,12.3,25.6,17.7,32.4C387,545.3,389.4,545.3,390.7,543.6z M388.2,504.5c3.7,0,6.7,3,6.7,6.7s-3,6.7-6.7,6.7
			c-3.7,0-6.7-3-6.7-6.7C381.4,507.6,384.5,504.5,388.2,504.5z"/>
	</g>
</g>
</svg>
