<svg width="254" height="342" viewBox="0 0 254 342" fill="none" xmlns="http://www.w3.org/2000/svg">
<path d="M191.773 191.579L190.686 189.9L191.773 191.579ZM0.680039 324.395C0.147793 323.427 0.500913 322.211 1.46879 321.678L17.2412 313.005C18.2091 312.472 19.4251 312.826 19.9574 313.793C20.4897 314.761 20.1365 315.977 19.1687 316.51L5.14876 324.22L12.8586 338.239C13.3909 339.207 13.0378 340.423 12.0699 340.956C11.102 341.488 9.88593 341.135 9.35368 340.167L0.680039 324.395ZM241.905 0.330184C249.494 22.257 256.151 58.1299 251.497 94.671C246.838 131.253 230.808 168.672 192.861 193.257L190.686 189.9C227.372 166.132 242.972 129.946 247.529 94.1656C252.091 58.3439 245.552 23.0961 238.125 1.63857L241.905 0.330184ZM192.861 193.257C181.093 200.881 171.551 205.157 163.999 206.904C156.467 208.647 150.648 207.926 146.664 205.145C142.634 202.332 140.951 197.744 141.005 192.83C141.059 187.931 142.818 182.523 145.886 177.566C152.024 167.651 163.718 159.073 178.819 159.916C193.9 160.758 211.762 170.961 230.403 197.223L227.142 199.538C208.847 173.765 191.955 164.656 178.596 163.91C165.258 163.165 154.826 170.724 149.287 179.672C146.517 184.147 145.049 188.852 145.005 192.874C144.961 196.879 146.308 200.019 148.953 201.865C151.645 203.744 156.147 204.615 163.097 203.007C170.028 201.404 179.13 197.387 190.686 189.9L192.861 193.257ZM230.403 197.223C239.796 210.455 244.398 222.825 244.951 234.32C245.506 245.838 241.987 256.295 235.461 265.653C222.479 284.268 197.555 298.614 168.642 308.976C139.653 319.365 106.319 325.865 76.1104 328.575C45.9578 331.28 18.6768 330.231 1.8748 325.351L2.99026 321.51C19.0716 326.18 45.7588 327.282 75.753 324.591C105.692 321.905 138.683 315.463 167.292 305.211C195.977 294.931 219.924 280.938 232.18 263.365C238.272 254.63 241.463 245.031 240.956 234.512C240.448 223.971 236.217 212.323 227.142 199.538L230.403 197.223Z" fill="black"/>
</svg>
