<svg width="378" height="1136" viewBox="0 0 378 1136" fill="none" xmlns="http://www.w3.org/2000/svg">
<path d="M73 144L72.0447 143.704L73 144ZM0.325354 1127.26C-0.0823101 1127.63 -0.110738 1128.27 0.261858 1128.67L6.33367 1135.32C6.70627 1135.73 7.33879 1135.75 7.74646 1135.38C8.15412 1135.01 8.18255 1134.38 7.80995 1133.97L2.41279 1128.06L8.31792 1122.67C8.72559 1122.29 8.75401 1121.66 8.38142 1121.25C8.00882 1120.85 7.37629 1120.82 6.96863 1121.19L0.325354 1127.26ZM381.109 3.00594C338.34 -1.67189 271.595 -0.271722 210.298 19.1467C148.998 38.5661 92.9794 76.0692 72.0447 143.704L73.9553 144.296C94.6206 77.5308 149.935 40.3672 210.902 21.0533C271.872 1.73841 338.327 0.338575 380.891 4.99408L381.109 3.00594ZM72.0447 143.704C45.9302 228.074 72.5667 321.367 110.349 399.685C148.148 478.035 197.205 541.606 216.204 566.605L217.796 565.395C198.795 540.394 149.852 476.965 112.151 398.815C74.4333 320.633 48.0698 227.926 73.9553 144.296L72.0447 143.704ZM216.204 566.605C235.1 591.468 256.543 637.821 265.518 684.937C274.503 732.111 270.919 779.629 240.33 807.258L241.67 808.742C273.081 780.371 276.497 731.889 267.482 684.563C258.457 637.179 236.9 590.532 217.796 565.395L216.204 566.605ZM240.33 807.258C209.535 835.073 183.798 830.739 173.62 819.334C168.507 813.605 167.202 806.062 170.857 799.486C174.532 792.873 183.375 786.971 199.125 784.992L198.875 783.008C182.79 785.029 173.215 791.127 169.109 798.514C164.983 805.938 166.531 814.395 172.128 820.666C183.367 833.261 210.465 836.927 241.67 808.742L240.33 807.258ZM199.125 784.992C214.692 783.036 227.095 788.517 236.855 798.783C246.651 809.086 253.79 824.224 258.664 841.521C268.41 876.112 268.992 918.96 264.015 947.83L265.985 948.17C271.008 919.04 270.425 875.888 260.589 840.979C255.671 823.526 248.415 808.039 238.304 797.405C228.158 786.733 215.143 780.964 198.875 783.008L199.125 784.992ZM264.015 947.83C254.081 1005.45 178.436 1134.97 1.0449 1127L0.955102 1129C179.564 1137.03 255.919 1006.55 265.985 948.17L264.015 947.83Z" fill="black"/>
</svg>
