<svg width="409" height="193" viewBox="0 0 409 193" fill="none" xmlns="http://www.w3.org/2000/svg">
<g filter="url(#filter0_d_299_373)">
<path d="M173.882 101.659L173.673 100.681L173.882 101.659ZM401.96 60.7293C401.806 60.1989 401.251 59.8938 400.721 60.0478L392.078 62.5576C391.548 62.7116 391.243 63.2664 391.397 63.7968C391.551 64.3272 392.106 64.6323 392.636 64.4782L400.319 62.2473L402.549 69.93C402.703 70.4603 403.258 70.7654 403.789 70.6114C404.319 70.4574 404.624 69.9026 404.47 69.3722L401.96 60.7293ZM4.1005 1.43692C14.1841 22.1965 34.7534 52.1383 63.7394 74.5748C92.7417 97.024 130.241 112.007 174.091 102.637L173.673 100.681C130.559 109.894 93.6465 95.1953 64.9636 72.9933C36.2643 50.7786 15.8747 21.0994 5.8995 0.563082L4.1005 1.43692ZM174.091 102.637C187.741 99.7199 197.389 96.0281 203.829 92.0079C210.261 87.9932 213.606 83.575 214.388 79.1796C215.175 74.7564 213.317 70.6376 209.966 67.3595C206.621 64.0871 201.729 61.5794 196.192 60.2767C185.118 57.6709 171.187 59.831 161.399 70.7764C151.618 81.7142 146.18 101.195 151.544 132.798L153.515 132.463C148.202 101.155 153.684 82.4046 162.89 72.1096C172.089 61.8223 185.213 59.748 195.734 62.2235C200.995 63.4615 205.536 65.8233 208.568 68.7892C211.594 71.7494 213.058 75.2374 212.419 78.8294C211.775 82.4492 208.948 86.4546 202.77 90.3113C196.6 94.1627 187.2 97.7905 173.673 100.681L174.091 102.637ZM151.544 132.798C154.236 148.661 159.666 160.469 167.243 168.812C174.827 177.163 184.5 181.976 195.545 183.945C217.574 187.872 245.107 180.503 272.824 167.41C300.577 154.301 328.674 135.377 351.898 115.976C375.102 96.5935 393.536 76.6564 401.876 61.49L400.124 60.5263C391.964 75.3639 373.759 95.1096 350.616 114.442C327.495 133.756 299.541 152.579 271.97 165.602C244.363 178.642 217.301 185.791 195.896 181.976C185.225 180.073 175.971 175.449 168.723 167.467C161.468 159.478 156.162 148.056 153.515 132.463L151.544 132.798Z" fill="black"/>
</g>
<defs>
<filter id="filter0_d_299_373" x="0.100464" y="0.56311" width="408.41" height="192.437" filterUnits="userSpaceOnUse" color-interpolation-filters="sRGB">
<feFlood flood-opacity="0" result="BackgroundImageFix"/>
<feColorMatrix in="SourceAlpha" type="matrix" values="0 0 0 0 0 0 0 0 0 0 0 0 0 0 0 0 0 0 127 0" result="hardAlpha"/>
<feOffset dy="4"/>
<feGaussianBlur stdDeviation="2"/>
<feComposite in2="hardAlpha" operator="out"/>
<feColorMatrix type="matrix" values="0 0 0 0 0 0 0 0 0 0 0 0 0 0 0 0 0 0 0.25 0"/>
<feBlend mode="normal" in2="BackgroundImageFix" result="effect1_dropShadow_299_373"/>
<feBlend mode="normal" in="SourceGraphic" in2="effect1_dropShadow_299_373" result="shape"/>
</filter>
</defs>
</svg>
